HIERARCHY
ROOT SimulationBone
{
	OFFSET 0.000000 0.000000 0.000000
	CHANNELS 6 Xposition Yposition Zposition Zrotation Yrotation Xrotation 
	JOINT Hips
	{
		OFFSET 0.000000 0.000000 0.000000
		CHANNELS 6 Xposition Yposition Zposition Zrotation Yrotation Xrotation 
		JOINT LeftUpLeg
		{
			OFFSET 0.103456 1.857826 10.548504
			CHANNELS 3 Zrotation Yrotation Xrotation
			JOINT LeftLeg
			{
				OFFSET 43.499996 -0.000038 0.000006
				CHANNELS 3 Zrotation Yrotation Xrotation
				JOINT LeftFoot
				{
					OFFSET 42.372192 0.000011 -0.000004
					CHANNELS 3 Zrotation Yrotation Xrotation
					JOINT LeftToe
					{
						OFFSET 17.300018 0.000006 0.000004
						CHANNELS 3 Zrotation Yrotation Xrotation
						End Site
						{
							OFFSET 0.000000 0.000000 0.000000
						}
					}
				}
			}
		}
		JOINT RightUpLeg
		{
			OFFSET 0.103455 1.857819 -10.548502
			CHANNELS 3 Zrotation Yrotation Xrotation
			JOINT RightLeg
			{
				OFFSET 43.500038 -0.000031 0.000011
				CHANNELS 3 Zrotation Yrotation Xrotation
				JOINT RightFoot
				{
					OFFSET 42.372261 -0.000008 0.000014
					CHANNELS 3 Zrotation Yrotation Xrotation
					JOINT RightToe
					{
						OFFSET 17.299999 -0.000004 0.000004
						CHANNELS 3 Zrotation Yrotation Xrotation
						End Site
						{
							OFFSET 0.000000 0.000000 0.000000
						}
					}
				}
			}
		}
		JOINT Spine
		{
			OFFSET 6.901965 -2.603737 -0.000000
			CHANNELS 3 Zrotation Yrotation Xrotation
			JOINT Spine1
			{
				OFFSET 12.588105 0.000013 0.000001
				CHANNELS 3 Zrotation Yrotation Xrotation
				JOINT Spine2
				{
					OFFSET 12.343203 0.000010 -0.000000
					CHANNELS 3 Zrotation Yrotation Xrotation
					JOINT Neck
					{
						OFFSET 25.832893 -0.000038 0.000001
						CHANNELS 3 Zrotation Yrotation Xrotation
						JOINT Head
						{
							OFFSET 11.766606 0.000028 0.000001
							CHANNELS 3 Zrotation Yrotation Xrotation
							End Site
							{
								OFFSET 0.000000 0.000000 0.000000
							}
						}
					}
					JOINT LeftShoulder
					{
						OFFSET 19.745897 -1.480375 6.000107
						CHANNELS 3 Zrotation Yrotation Xrotation
						JOINT LeftArm
						{
							OFFSET 11.284126 -0.000009 -0.000017
							CHANNELS 3 Zrotation Yrotation Xrotation
							JOINT LeftForeArm
							{
								OFFSET 33.000046 0.000006 0.000030
								CHANNELS 3 Zrotation Yrotation Xrotation
								JOINT LeftHand
								{
									OFFSET 25.200006 0.000034 0.000015
									CHANNELS 3 Zrotation Yrotation Xrotation
									End Site
									{
										OFFSET 0.000000 0.000000 0.000000
									}
								}
							}
						}
					}
					JOINT RightShoulder
					{
						OFFSET 19.746096 -1.480394 -6.000075
						CHANNELS 3 Zrotation Yrotation Xrotation
						JOINT RightArm
						{
							OFFSET 11.284135 -0.000006 -0.000006
							CHANNELS 3 Zrotation Yrotation Xrotation
							JOINT RightForeArm
							{
								OFFSET 33.000095 0.000018 0.000006
								CHANNELS 3 Zrotation Yrotation Xrotation
								JOINT RightHand
								{
									OFFSET 25.199783 0.000116 0.000436
									CHANNELS 3 Zrotation Yrotation Xrotation
									End Site
									{
										OFFSET 0.000000 0.000000 0.000000
									}
								}
							}
						}
					}
				}
			}
		}
	}
}
MOTION
Frames: 9
Frame Time: 0.016667
-31.031164 0.000000 311.334818 0.000000 62.723540 0.000000 4.639638 82.501900 -2.747191 109.064970 -4.903892 -175.644779 158.171472 -11.202903 166.699332 -73.902461 6.436351 -10.582330 77.138892 5.824004 -5.322869 21.454551 0.003094 -0.000001 165.512914 0.531800 -172.385328 -60.121633 0.091898 11.558952 91.123581 -7.431098 3.300799 21.454560 -0.003107 -0.000018 12.165175 0.379547 -0.660944 14.313224 0.837954 -1.269779 13.995165 0.830406 -1.274801 -9.332248 -4.065319 -3.605881 -12.727856 -0.305030 -4.929130 169.887035 -76.325576 8.924909 5.589518 62.533406 15.103689 -101.743508 -0.059916 2.831420 4.148460 1.770962 39.764165 138.735974 72.917204 -40.921310 3.333840 -59.802402 -22.908723 -51.156781 14.336130 -1.773978 8.466672 11.333563 -25.571022 
-31.867477 0.000000 313.942639 0.000000 63.831741 0.000000 4.683739 83.708305 -2.445023 109.072751 -4.696187 -176.469634 161.791888 -10.827850 166.439744 -75.300255 6.136205 -9.555628 77.400027 4.866351 -6.264052 21.454554 0.003085 0.000004 165.411986 0.651371 -172.536540 -56.234113 0.700588 11.260639 87.329543 -7.465851 1.777809 21.454561 -0.003108 -0.000017 12.025872 0.261104 -0.751571 14.035187 0.611482 -1.465829 13.717165 0.602756 -1.469490 -9.306013 -4.117994 -3.143444 -12.161112 -0.484273 -4.430949 170.086893 -76.523158 8.713408 4.551419 61.962737 16.276789 -101.257077 -0.207530 2.820821 4.079389 1.533251 41.262820 139.152566 73.060060 -40.486379 3.536713 -60.347152 -21.064709 -51.988029 14.410237 -1.806495 8.220928 11.600594 -25.778902 
-32.718094 0.000000 316.614087 0.000000 64.933317 0.000000 4.695713 85.161209 -2.175798 108.913954 -4.373657 -177.520479 165.633044 -10.349306 165.651294 -75.446159 5.960169 -8.764675 76.937975 3.961377 -7.513655 21.454555 0.003086 0.000002 165.395134 0.544305 -173.166701 -51.584125 1.393899 11.131337 82.294469 -7.627895 0.843608 21.454560 -0.003108 -0.000017 11.853487 0.151858 -0.795079 13.691504 0.396779 -1.566518 13.373516 0.387446 -1.568878 -9.288926 -4.161539 -2.684388 -11.719804 -0.569351 -3.965632 170.851075 -76.720566 7.926214 3.779768 61.439435 17.445836 -101.098301 -0.240635 2.815432 4.351110 1.824733 41.222079 139.349134 73.127000 -40.281195 3.951527 -60.732872 -19.822902 -52.727488 14.459570 -1.834719 7.977890 12.121060 -25.974280 
-33.581211 0.000000 319.344808 0.000000 66.027423 0.000000 4.659178 86.716932 -1.945025 108.569076 -3.952016 -178.687941 169.408689 -9.725598 164.648563 -74.631097 5.843811 -8.038200 75.982031 3.031075 -8.845372 21.454554 0.003092 -0.000002 165.360139 0.297973 -174.115670 -46.380279 2.123820 11.167771 76.100794 -7.892027 0.379643 21.454557 -0.003108 -0.000017 11.651943 0.059323 -0.807447 13.289591 0.211051 -1.602672 12.971626 0.201500 -1.603904 -9.271463 -4.197285 -2.243580 -11.427234 -0.575168 -3.541661 171.978421 -76.887325 6.769903 3.223341 60.913228 18.591516 -101.243912 -0.170608 2.816748 4.794000 2.348398 39.820066 139.384691 73.148712 -40.243300 4.451787 -60.943758 -19.076951 -53.410654 14.478601 -1.859299 7.773236 12.740814 -26.094912 
-34.455022 0.000000 322.130445 0.000000 67.113206 0.000000 4.558103 88.231796 -1.759503 108.018866 -3.447957 -179.863878 172.834413 -8.963501 163.741027 -73.147889 5.732370 -7.200607 74.756447 2.009860 -10.038625 21.454551 0.003095 -0.000005 165.203985 -0.003000 -175.222793 -40.827441 2.840491 11.355790 68.808814 -8.228012 0.269700 21.454555 -0.003109 -0.000017 11.425238 -0.009039 -0.804744 12.837128 0.071319 -1.605475 12.519170 0.061755 -1.605861 -9.244110 -4.226701 -1.835906 -11.307112 -0.516464 -3.168306 173.244032 -76.994668 5.474780 2.831494 60.334665 19.695789 -101.670602 -0.008719 2.824627 5.231292 2.814014 37.230237 139.322578 73.155297 -40.305906 4.896315 -60.961315 -18.706871 -54.073019 14.461739 -1.880874 7.645489 13.306174 -26.075938 
-35.337723 0.000000 324.966643 0.000000 68.189801 0.000000 4.392850 89.566950 -1.618634 107.267394 -2.906825 179.052931 175.703667 -8.087958 163.172002 -71.236369 5.582808 -6.112724 73.502024 0.849623 -10.975640 21.454546 0.003091 -0.000003 164.858898 -0.227388 -176.353309 -35.192208 3.479204 11.586383 60.807507 -8.389374 0.769052 21.454554 -0.003110 -0.000017 11.179695 -0.052978 -0.802509 12.346667 -0.019981 -1.606041 12.028701 -0.029539 -1.605883 -9.195144 -4.253068 -1.478157 -11.371265 -0.405279 -2.858790 174.399418 -77.032367 4.294377 2.547193 59.661505 20.743099 -102.350283 0.232574 2.837968 5.526872 2.976669 33.670590 139.239522 73.173263 -40.388908 5.175518 -60.779079 -18.584475 -54.759775 14.395993 -1.900133 7.618270 13.680712 -25.884126 
-36.227507 0.000000 327.849049 0.000000 69.256338 0.000000 4.226907 90.602859 -1.486055 106.412744 -2.486137 178.142782 178.088850 -7.038698 162.965322 -68.917871 5.402050 -4.780266 72.551095 -0.492245 -11.938329 21.454546 0.003084 0.000002 164.405303 -0.042211 -177.481687 -30.016744 3.941363 11.399863 53.926695 -7.082355 3.482767 21.454558 -0.003111 -0.000018 10.930740 -0.100821 -0.813757 11.849461 -0.117768 -1.633515 11.531497 -0.127483 -1.632773 -9.104002 -4.286584 -1.194733 -11.582773 -0.243227 -2.639770 175.188287 -77.052295 3.488599 2.289935 58.877656 21.728712 -103.235808 0.535762 2.855908 5.634865 2.803974 29.566669 139.262295 73.215423 -40.362406 5.338629 -60.440076 -18.577301 -55.554900 14.238930 -1.917645 7.648201 13.797010 -25.620129 
-37.122571 0.000000 330.773307 0.000000 70.311942 0.000000 4.117393 91.260531 -1.324659 105.574103 -2.299918 177.468170 -179.878740 -5.789193 163.068798 -66.165709 5.198954 -3.296794 72.002200 -2.010797 -13.190471 21.454551 0.003079 0.000007 163.919597 0.770651 -178.583217 -25.916204 4.227289 10.534306 50.177615 -3.396900 9.165425 21.454565 -0.003113 -0.000019 10.696869 -0.175883 -0.844458 11.382907 -0.267846 -1.702092 11.064971 -0.277973 -1.700441 -8.959936 -4.338677 -1.004867 -11.889275 -0.034663 -2.533113 175.444459 -77.115468 3.225445 1.955804 57.993781 22.623355 -104.275876 0.881428 2.877782 5.546413 2.336723 25.347303 139.483377 73.285424 -40.132110 5.454987 -59.989013 -18.560597 -56.541836 13.952741 -1.933308 7.671723 13.621789 -25.411693 
-38.021109 0.000000 333.735061 0.000000 71.355741 0.000000 4.043111 91.603828 -1.147076 104.825908 -2.206587 177.015415 -178.102456 -4.573699 163.306927 -62.986897 4.960726 -1.969835 70.863512 -3.520621 -14.460653 21.454557 0.003081 0.000009 163.363481 1.754400 -179.503341 -23.485172 4.457397 9.949589 49.677457 0.077202 14.730655 21.454568 -0.003114 -0.000020 10.499690 -0.252532 -0.875815 10.989866 -0.420743 -1.771638 10.671949 -0.431292 -1.769058 -8.800123 -4.418621 -0.899346 -12.224554 0.197934 -2.527666 175.307132 -77.252023 3.361810 1.369214 57.098149 23.285410 -105.421401 1.247414 2.902666 5.295269 1.728737 21.246838 139.802003 73.364315 -39.801937 5.511894 -59.425594 -18.441115 -57.764521 13.547655 -1.950083 7.620440 13.188638 -25.354884 
